<svg width="22" height="19" viewBox="0 0 22 19" fill="none" xmlns="http://www.w3.org/2000/svg">
<path d="M2 19C1.45 19 0.979167 18.8042 0.5875 18.4125C0.195833 18.0208 0 17.55 0 17V4H2V17H19V19H2ZM6 15C5.45 15 4.97917 14.8042 4.5875 14.4125C4.19583 14.0208 4 13.55 4 13V2C4 1.45 4.19583 0.979167 4.5875 0.5875C4.97917 0.195833 5.45 0 6 0H11L13 2H20C20.55 2 21.0208 2.19583 21.4125 2.5875C21.8042 2.97917 22 3.45 22 4V13C22 13.55 21.8042 14.0208 21.4125 14.4125C21.0208 14.8042 20.55 15 20 15H6Z" fill="#1C1B1F"/>
</svg>
