<svg width="24" height="24" viewBox="0 0 24 24" fill="none" xmlns="http://www.w3.org/2000/svg">
<path d="M11.8087 5.3307V2.81445H14.0531" stroke="#1C1B1F" stroke-width="1.125" stroke-miterlimit="10"/>
<path d="M19.3293 11.0906H16.0012V19.395H19.3293V11.0906Z" stroke="#1C1B1F" stroke-width="1.125" stroke-miterlimit="10"/>
<path d="M7.92371 11.0906H4.59558V19.395H7.92371V11.0906Z" stroke="#1C1B1F" stroke-width="1.125" stroke-miterlimit="10"/>
<path d="M2.72058 19.395H20.9662" stroke="#1C1B1F" stroke-width="1.125" stroke-miterlimit="10"/>
<path d="M3.27191 9.14424L11.8125 5.42236L20.4169 9.14424V10.9761H3.27191V9.14424Z" stroke="#1C1B1F" stroke-width="1.125" stroke-linecap="round" stroke-linejoin="round"/>
<path d="M10.4175 18.8212V14.5125H13.2694V18.8212" stroke="#1C1B1F" stroke-width="0.9375" stroke-miterlimit="10"/>
<path d="M11.8443 9.15572C12.3041 9.15572 12.6768 8.783 12.6768 8.32322C12.6768 7.86345 12.3041 7.49072 11.8443 7.49072C11.3846 7.49072 11.0118 7.86345 11.0118 8.32322C11.0118 8.783 11.3846 9.15572 11.8443 9.15572Z" fill="#1C1B1F"/>
</svg>
