<svg width="24" height="24" viewBox="0 0 24 24" fill="none" xmlns="http://www.w3.org/2000/svg">
<g clip-path="url(#clip0_4392_44268)">
<path d="M3.07855 16.3687V15.2925C3.07855 13.7737 4.30855 12.5437 5.8273 12.5437C6.7423 12.5437 7.5523 12.99 8.05293 13.6781" stroke="#1C1B1F" stroke-width="0.935559" stroke-miterlimit="10" stroke-linecap="round"/>
<path d="M5.76929 12.5343C6.85763 12.5343 7.73991 11.652 7.73991 10.5636C7.73991 9.4753 6.85763 8.59302 5.76929 8.59302C4.68094 8.59302 3.79866 9.4753 3.79866 10.5636C3.79866 11.652 4.68094 12.5343 5.76929 12.5343Z" stroke="#1C1B1F" stroke-width="0.935559" stroke-miterlimit="10"/>
<path d="M15.8874 13.7681C16.3805 13.0293 17.2205 12.5437 18.1749 12.5437C19.6936 12.5437 20.9236 13.7737 20.9236 15.2925V16.3687" stroke="#1C1B1F" stroke-width="0.935559" stroke-miterlimit="10" stroke-linecap="round"/>
<path d="M18.1198 12.5343C19.2082 12.5343 20.0905 11.652 20.0905 10.5636C20.0905 9.4753 19.2082 8.59302 18.1198 8.59302C17.0315 8.59302 16.1492 9.4753 16.1492 10.5636C16.1492 11.652 17.0315 12.5343 18.1198 12.5343Z" stroke="#1C1B1F" stroke-width="0.935559" stroke-miterlimit="10"/>
<path d="M7.70728 17.6512V15.9824C7.70728 13.6293 9.61416 11.7224 11.9673 11.7224C14.3204 11.7224 16.2273 13.6293 16.2273 15.9824V17.6512" stroke="#1C1B1F" stroke-width="1.12267" stroke-miterlimit="10" stroke-linecap="round"/>
<path d="M11.8789 11.7074C13.5658 11.7074 14.9333 10.3399 14.9333 8.65301C14.9333 6.96612 13.5658 5.59863 11.8789 5.59863C10.192 5.59863 8.82455 6.96612 8.82455 8.65301C8.82455 10.3399 10.192 11.7074 11.8789 11.7074Z" stroke="#1C1B1F" stroke-width="1.12267" stroke-miterlimit="10"/>
</g>
<defs>
<clipPath id="clip0_4392_44268">
<rect width="24" height="24" fill="white"/>
</clipPath>
</defs>
</svg>
