<svg width="24" height="24" viewBox="0 0 24 24" fill="none" xmlns="http://www.w3.org/2000/svg">
<mask id="mask0_5074_44728" style="mask-type:alpha" maskUnits="userSpaceOnUse" x="0" y="0" width="24" height="24">
<rect width="24" height="24" fill="#D9D9D9"/>
</mask>
<g mask="url(#mask0_5074_44728)">
<path d="M9.01501 10.873H15.2756C15.5869 10.873 15.8381 10.6218 15.8381 10.3105C15.8381 9.9993 15.5869 9.74805 15.2756 9.74805H9.01501C8.70376 9.74805 8.45251 9.9993 8.45251 10.3105C8.45251 10.6218 8.70376 10.873 9.01501 10.873Z" fill="#1C1B1F"/>
<path d="M9.01483 13.6106H15.2755C15.5867 13.6106 15.838 13.3593 15.838 13.0481C15.838 12.7368 15.5867 12.4856 15.2755 12.4856H9.01483C8.70358 12.4856 8.45233 12.7368 8.45233 13.0481C8.45233 13.3593 8.70358 13.6106 9.01483 13.6106Z" fill="#1C1B1F"/>
<path d="M9.01483 16.3462H15.2755C15.5867 16.3462 15.838 16.0949 15.838 15.7837C15.838 15.4724 15.5867 15.2212 15.2755 15.2212H9.01483C8.70358 15.2212 8.45233 15.4724 8.45233 15.7837C8.45233 16.0949 8.70358 16.3462 9.01483 16.3462Z" fill="#1C1B1F"/>
<path d="M17.3066 19.5301H6.84039C6.47476 19.5301 6.17664 19.2489 6.17664 18.9039V4.53201C6.17664 4.18701 6.47476 3.90576 6.84039 3.90576H13.9373L17.9704 7.72514V18.9058C17.9704 19.2508 17.6723 19.532 17.3066 19.532V19.5301Z" stroke="#1C1B1F" stroke-width="1.12267" stroke-linecap="round" stroke-linejoin="round"/>
<path d="M17.9695 7.72332H14.6002C14.2345 7.72332 13.9364 7.44207 13.9364 7.09707V3.91895" stroke="#1C1B1F" stroke-width="1.12267" stroke-miterlimit="10"/>
</g>
</svg>
