<svg width="30" height="30" viewBox="0 0 30 30" fill="none" xmlns="http://www.w3.org/2000/svg">
<rect width="30" height="30" rx="15" fill="#D58107"/>
<path d="M14.9996 20.7106C14.8477 20.7106 14.7029 20.6821 14.5652 20.6252C14.4276 20.5682 14.3018 20.4875 14.1879 20.3831L9.6166 15.8118C9.51217 15.6979 9.43147 15.5721 9.37451 15.4344C9.31754 15.2968 9.28906 15.152 9.28906 15.0001C9.28906 14.8482 9.31754 14.701 9.37451 14.5586C9.43147 14.4162 9.51217 14.2928 9.6166 14.1884L14.1879 9.61709C14.3018 9.50316 14.4276 9.42009 14.5652 9.36787C14.7029 9.31566 14.8477 9.28955 14.9996 9.28955C15.1515 9.28955 15.2986 9.31566 15.4411 9.36787C15.5835 9.42009 15.7069 9.50316 15.8113 9.61709L20.3826 14.1884C20.4965 14.2928 20.5796 14.4162 20.6318 14.5586C20.684 14.701 20.7101 14.8482 20.7101 15.0001C20.7101 15.152 20.684 15.2968 20.6318 15.4344C20.5796 15.5721 20.4965 15.6979 20.3826 15.8118L15.8113 20.3831C15.7069 20.4875 15.5835 20.5682 15.4411 20.6252C15.2986 20.6821 15.1515 20.7106 14.9996 20.7106ZM14.9996 19.5713L19.5709 15.0001L14.9996 10.4288L10.4283 15.0001L14.9996 19.5713ZM14.43 15.5697H15.5692V12.1519H14.43V15.5697ZM14.9996 17.2786C15.161 17.2786 15.2963 17.224 15.4054 17.1148C15.5146 17.0056 15.5692 16.8704 15.5692 16.709C15.5692 16.5476 15.5146 16.4123 15.4054 16.3031C15.2963 16.1939 15.161 16.1393 14.9996 16.1393C14.8382 16.1393 14.7029 16.1939 14.5937 16.3031C14.4845 16.4123 14.43 16.5476 14.43 16.709C14.43 16.8704 14.4845 17.0056 14.5937 17.1148C14.7029 17.224 14.8382 17.2786 14.9996 17.2786Z" fill="white"/>
</svg>
