<svg width="24" height="24" viewBox="0 0 24 24" fill="none" xmlns="http://www.w3.org/2000/svg">
<path d="M16.9255 19.5901C13.8336 21.8213 9.76486 21.7145 6.82861 19.6088" stroke="black" stroke-width="1.125" stroke-miterlimit="10" stroke-linecap="round"/>
<path d="M8.30982 4.66504C4.83169 6.22691 2.88919 9.80442 3.24544 13.4007" stroke="black" stroke-width="1.125" stroke-miterlimit="10" stroke-linecap="round"/>
<path d="M15.4236 4.65381C18.9036 6.21193 20.848 9.78756 20.4955 13.3838" stroke="black" stroke-width="1.125" stroke-miterlimit="10" stroke-linecap="round"/>
<path d="M4.70041 18.465C5.70074 18.465 6.51166 17.6541 6.51166 16.6538C6.51166 15.6535 5.70074 14.8425 4.70041 14.8425C3.70008 14.8425 2.88916 15.6535 2.88916 16.6538C2.88916 17.6541 3.70008 18.465 4.70041 18.465Z" fill="black"/>
<path d="M11.8986 5.99262C12.8989 5.99262 13.7098 5.18169 13.7098 4.18137C13.7098 3.18104 12.8989 2.37012 11.8986 2.37012C10.8982 2.37012 10.0873 3.18104 10.0873 4.18137C10.0873 5.18169 10.8982 5.99262 11.8986 5.99262Z" fill="black"/>
<path d="M19.1023 18.465C20.1026 18.465 20.9135 17.6541 20.9135 16.6538C20.9135 15.6535 20.1026 14.8425 19.1023 14.8425C18.102 14.8425 17.291 15.6535 17.291 16.6538C17.291 17.6541 18.102 18.465 19.1023 18.465Z" fill="black"/>
</svg>
